<?xml version="1.0" encoding="UTF-8" standalone="no"?>
<!DOCTYPE svg PUBLIC "-//W3C//DTD SVG 1.1//EN"
 "http://www.w3.org/Graphics/SVG/1.1/DTD/svg11.dtd">
<!-- Generated by graphviz version 2.38.0 (20140413.2041)
 -->
<!-- Title: %3 Pages: 1 -->
<svg width="2376pt" height="2853pt"
 viewBox="0.00 0.00 2375.92 2852.94" xmlns="http://www.w3.org/2000/svg" xmlns:xlink="http://www.w3.org/1999/xlink">
<g id="graph0" class="graph" transform="scale(1 1) rotate(0) translate(4 2848.94)">
<title>%3</title>
<polygon fill="white" stroke="none" points="-4,4 -4,-2848.94 2371.92,-2848.94 2371.92,4 -4,4"/>
<!-- unhappy -->
<g id="node1" class="node"><title>unhappy</title>
<path fill="none" stroke="black" d="M742.959,-2844.94C742.959,-2844.94 561.221,-2844.94 561.221,-2844.94 555.221,-2844.94 549.221,-2838.94 549.221,-2832.94 549.221,-2832.94 549.221,-2820.94 549.221,-2820.94 549.221,-2814.94 555.221,-2808.94 561.221,-2808.94 561.221,-2808.94 742.959,-2808.94 742.959,-2808.94 748.959,-2808.94 754.959,-2814.94 754.959,-2820.94 754.959,-2820.94 754.959,-2832.94 754.959,-2832.94 754.959,-2838.94 748.959,-2844.94 742.959,-2844.94"/>
<text text-anchor="middle" x="652.09" y="-2827.15" font-family="Times,serif" font-size="14.00">React はあなたを不幸にする。</text>
</g>
<!-- are_you_using_react_boilerplates -->
<g id="node2" class="node"><title>are_you_using_react_boilerplates</title>
<polygon fill="none" stroke="black" points="652.09,-2771.76 411.124,-2720.12 652.09,-2668.48 893.056,-2720.12 652.09,-2771.76"/>
<text text-anchor="middle" x="652.09" y="-2730.83" font-family="Times,serif" font-size="14.00">ひな形プロジェクトから</text>
<text text-anchor="middle" x="652.09" y="-2709.83" font-family="Times,serif" font-size="14.00"> &#160;&#160;&#160;コピーして React を学びましたか?</text>
</g>
<!-- unhappy&#45;&gt;are_you_using_react_boilerplates -->
<g id="edge1" class="edge"><title>unhappy&#45;&gt;are_you_using_react_boilerplates</title>
<path fill="none" stroke="black" d="M652.09,-2808.63C652.09,-2801.13 652.09,-2791.84 652.09,-2782.14"/>
<polygon fill="black" stroke="black" points="655.59,-2781.95 652.09,-2771.95 648.59,-2781.95 655.59,-2781.95"/>
</g>
<!-- boilerplates_dont_teach -->
<g id="node3" class="node"><title>boilerplates_dont_teach</title>
<polygon fill="none" stroke="black" points="686.27,-2611.49 -0.0900236,-2611.49 -0.0900236,-2383.73 686.27,-2383.73 686.27,-2611.49"/>
<text text-anchor="middle" x="343.09" y="-2596.1" font-family="Times,serif" font-size="14.00">ひな形からコピーして React を学ぶことはすてきなレストランで食事をして</text>
<text text-anchor="middle" x="343.09" y="-2573.28" font-family="Times,serif" font-size="14.00"> &#160;&#160;&#160;料理を学ぼうとするようなものです。それはうまくいきません。</text>
<text text-anchor="middle" x="343.09" y="-2550.46" font-family="Times,serif" font-size="14.00"> &#160;&#160;&#160;見落としを恐れずに基本からはじめる必要があります。根拠がありません。</text>
<text text-anchor="middle" x="343.09" y="-2527.64" font-family="Times,serif" font-size="14.00"> &#160;&#160;&#160;自分が作り上げたものや学んだことを見せるためにひな形を作るのであって、</text>
<text text-anchor="middle" x="343.09" y="-2504.82" font-family="Times,serif" font-size="14.00"> &#160;&#160;&#160;あなたの学習を助けるためではありません。それらはパワーユーザによるパワーユーザのためのもので、</text>
<text text-anchor="middle" x="343.09" y="-2482" font-family="Times,serif" font-size="14.00"> &#160;&#160;&#160;しばしばそれは彼ら/彼女らが思っている以上に実験的な方法です。</text>
<text text-anchor="middle" x="343.09" y="-2459.18" font-family="Times,serif" font-size="14.00"> &#160;&#160;&#160;ひな形は肥大化によって注目を集めて競い合いをします。</text>
<text text-anchor="middle" x="343.09" y="-2436.36" font-family="Times,serif" font-size="14.00"> &#160;&#160;&#160;それらで React を学んでいるのであれば、Pete Hunt の解説がおすすめです:</text>
<text text-anchor="middle" x="343.09" y="-2413.54" font-family="Times,serif" font-size="14.00"> &#160;&#160;&#160;https://github.com/petehunt/react&#45;howto</text>
<text text-anchor="middle" x="343.09" y="-2399.54" font-family="Times,serif" font-size="14.00"> &#160;&#160;&#160;自力で作れるようになるまではひな形は見ないでください。</text>
</g>
<!-- are_you_using_react_boilerplates&#45;&gt;boilerplates_dont_teach -->
<g id="edge2" class="edge"><title>are_you_using_react_boilerplates&#45;&gt;boilerplates_dont_teach</title>
<path fill="none" stroke="black" d="M597.203,-2679.95C572.288,-2662.17 541.349,-2640.1 509.727,-2617.53"/>
<polygon fill="black" stroke="black" points="511.41,-2614.43 501.237,-2611.47 507.344,-2620.13 511.41,-2614.43"/>
<text text-anchor="middle" x="567.09" y="-2639.1" font-family="Times,serif" font-size="14.00">はい</text>
</g>
<!-- steal_from_boilerplates -->
<g id="node4" class="node"><title>steal_from_boilerplates</title>
<polygon fill="none" stroke="black" points="1220.23,-2591.85 703.95,-2591.85 703.95,-2403.37 1220.23,-2403.37 1220.23,-2591.85"/>
<text text-anchor="middle" x="962.09" y="-2576.78" font-family="Times,serif" font-size="14.00">ひな形は各技術を学ぶ方法としては良くありませんが、</text>
<text text-anchor="middle" x="962.09" y="-2555.78" font-family="Times,serif" font-size="14.00"> &#160;&#160;&#160;それぞれの技術について個別に学んだ「あとで」</text>
<text text-anchor="middle" x="962.09" y="-2532.96" font-family="Times,serif" font-size="14.00"> &#160;&#160;&#160;それらをどのように組み合わせることができるのかを見るのには役立ちます。</text>
<text text-anchor="middle" x="962.09" y="-2510.14" font-family="Times,serif" font-size="14.00"> &#160;&#160;&#160;新しい技術の発見のためにはよい方法ですが、</text>
<text text-anchor="middle" x="962.09" y="-2487.32" font-family="Times,serif" font-size="14.00"> &#160;&#160;&#160;間違ってもそれらを使おうと思うべきではありません。</text>
<text text-anchor="middle" x="962.09" y="-2464.5" font-family="Times,serif" font-size="14.00"> &#160;&#160;&#160;ひな形を完全に毛嫌いしないでください。</text>
<text text-anchor="middle" x="962.09" y="-2441.68" font-family="Times,serif" font-size="14.00"> &#160;&#160;&#160;ただ、ひな形は裏技の寄せ集めであって、あなたのアプリケーションの</text>
<text text-anchor="middle" x="962.09" y="-2418.86" font-family="Times,serif" font-size="14.00"> &#160;&#160;&#160;強固な土台にはなり得ないということだけは心に留めておいてください。</text>
</g>
<!-- are_you_using_react_boilerplates&#45;&gt;steal_from_boilerplates -->
<g id="edge3" class="edge"><title>are_you_using_react_boilerplates&#45;&gt;steal_from_boilerplates</title>
<path fill="none" stroke="black" d="M707.155,-2679.95C739.451,-2656.98 781.839,-2626.83 822.755,-2597.73"/>
<polygon fill="black" stroke="black" points="824.795,-2600.57 830.915,-2591.92 820.738,-2594.87 824.795,-2600.57"/>
<text text-anchor="middle" x="792.09" y="-2639.1" font-family="Times,serif" font-size="14.00">いいえ</text>
</g>
<!-- are_you_using_flux -->
<g id="node5" class="node"><title>are_you_using_flux</title>
<polygon fill="none" stroke="black" points="726.09,-2347.06 498.486,-2293.28 726.09,-2239.5 953.694,-2293.28 726.09,-2347.06"/>
<text text-anchor="middle" x="726.09" y="-2304.9" font-family="Times,serif" font-size="14.00">Flux ライブラリ (または Redux) を</text>
<text text-anchor="middle" x="726.09" y="-2282.08" font-family="Times,serif" font-size="14.00"> &#160;&#160;&#160;使っていますか?</text>
</g>
<!-- boilerplates_dont_teach&#45;&gt;are_you_using_flux -->
<g id="edge4" class="edge"><title>boilerplates_dont_teach&#45;&gt;are_you_using_flux</title>
<path fill="none" stroke="black" d="M556.428,-2383.91C588.989,-2366.71 620.698,-2349.96 647.72,-2335.68"/>
<polygon fill="black" stroke="black" points="649.492,-2338.71 656.7,-2330.94 646.223,-2332.52 649.492,-2338.71"/>
</g>
<!-- steal_from_boilerplates&#45;&gt;are_you_using_flux -->
<g id="edge5" class="edge"><title>steal_from_boilerplates&#45;&gt;are_you_using_flux</title>
<path fill="none" stroke="black" d="M853.071,-2403.15C828.546,-2382.12 803.501,-2360.65 782.206,-2342.39"/>
<polygon fill="black" stroke="black" points="784.408,-2339.67 774.538,-2335.82 779.852,-2344.98 784.408,-2339.67"/>
</g>
<!-- is_too_much_flux -->
<g id="node6" class="node"><title>is_too_much_flux</title>
<polygon fill="none" stroke="black" points="531.09,-2182.46 298.662,-2130.82 531.09,-2079.18 763.518,-2130.82 531.09,-2182.46"/>
<text text-anchor="middle" x="531.09" y="-2141.53" font-family="Times,serif" font-size="14.00">それは用途のはっきりしない</text>
<text text-anchor="middle" x="531.09" y="-2120.53" font-family="Times,serif" font-size="14.00"> &#160;&#160;&#160;ひな形をたくさん追加しますか?</text>
</g>
<!-- are_you_using_flux&#45;&gt;is_too_much_flux -->
<g id="edge6" class="edge"><title>are_you_using_flux&#45;&gt;is_too_much_flux</title>
<path fill="none" stroke="black" d="M676.126,-2251.17C648.999,-2228.85 615.371,-2201.18 587.328,-2178.1"/>
<polygon fill="black" stroke="black" points="589.522,-2175.37 579.577,-2171.72 585.074,-2180.78 589.522,-2175.37"/>
<text text-anchor="middle" x="649.09" y="-2210.44" font-family="Times,serif" font-size="14.00">はい</text>
</g>
<!-- is_not_enough_flux -->
<g id="node7" class="node"><title>is_not_enough_flux</title>
<polygon fill="none" stroke="black" points="1264.09,-2182.46 780.902,-2130.82 1264.09,-2079.18 1747.28,-2130.82 1264.09,-2182.46"/>
<text text-anchor="middle" x="1264.09" y="-2141.53" font-family="Times,serif" font-size="14.00">バグの温床になっている肥大化したステートフルな</text>
<text text-anchor="middle" x="1264.09" y="-2120.53" font-family="Times,serif" font-size="14.00"> &#160;&#160;&#160;コンポーネントがアプリケーションのコンポーネント階層にありますか?</text>
</g>
<!-- are_you_using_flux&#45;&gt;is_not_enough_flux -->
<g id="edge7" class="edge"><title>are_you_using_flux&#45;&gt;is_not_enough_flux</title>
<path fill="none" stroke="black" d="M825.081,-2262.76C910.463,-2237.29 1034.57,-2200.28 1129.06,-2172.1"/>
<polygon fill="black" stroke="black" points="1130.1,-2175.44 1138.68,-2169.23 1128.1,-2168.73 1130.1,-2175.44"/>
<text text-anchor="middle" x="1049.09" y="-2210.44" font-family="Times,serif" font-size="14.00">いいえ</text>
</g>
<!-- remove_flux -->
<g id="node8" class="node"><title>remove_flux</title>
<polygon fill="none" stroke="black" points="848.89,-2022.23 357.29,-2022.23 357.29,-1945.31 848.89,-1945.31 848.89,-2022.23"/>
<text text-anchor="middle" x="603.09" y="-2006.8" font-family="Times,serif" font-size="14.00">Flux ライブラリの削除を検討してください。</text>
<text text-anchor="middle" x="603.09" y="-1983.98" font-family="Times,serif" font-size="14.00"> &#160;&#160;&#160;公式ドキュメントの「Thinking in React」を読んで素の React</text>
<text text-anchor="middle" x="603.09" y="-1961.16" font-family="Times,serif" font-size="14.00"> &#160;&#160;&#160;でいい感じにアプリケーションを構造化できる感覚をつかんでください。</text>
</g>
<!-- is_too_much_flux&#45;&gt;remove_flux -->
<g id="edge8" class="edge"><title>is_too_much_flux&#45;&gt;remove_flux</title>
<path fill="none" stroke="black" d="M553.871,-2083.93C562.214,-2067.12 571.657,-2048.1 580.024,-2031.24"/>
<polygon fill="black" stroke="black" points="583.237,-2032.64 584.548,-2022.13 576.967,-2029.53 583.237,-2032.64"/>
<text text-anchor="middle" x="590.09" y="-2049.8" font-family="Times,serif" font-size="14.00">はい</text>
</g>
<!-- are_you_using_bundler -->
<g id="node9" class="node"><title>are_you_using_bundler</title>
<polygon fill="none" stroke="black" points="933.09,-1908.68 587.562,-1854.9 933.09,-1801.12 1278.62,-1854.9 933.09,-1908.68"/>
<text text-anchor="middle" x="933.09" y="-1866.52" font-family="Times,serif" font-size="14.00">webpack や Browserify のような JavaScript</text>
<text text-anchor="middle" x="933.09" y="-1843.7" font-family="Times,serif" font-size="14.00"> &#160;&#160;&#160;の依存関係解決ツール (bundler) を使っていますか?</text>
</g>
<!-- is_too_much_flux&#45;&gt;are_you_using_bundler -->
<g id="edge9" class="edge"><title>is_too_much_flux&#45;&gt;are_you_using_bundler</title>
<path fill="none" stroke="black" d="M670.852,-2110.06C734.254,-2094.98 806.427,-2068.48 858.09,-2022 866.819,-2014.15 890.642,-1959.56 909.12,-1915.07"/>
<polygon fill="black" stroke="black" points="912.386,-1916.33 912.974,-1905.75 905.918,-1913.65 912.386,-1916.33"/>
<text text-anchor="middle" x="918.09" y="-1983.07" font-family="Times,serif" font-size="14.00">いいえ</text>
</g>
<!-- is_not_enough_flux&#45;&gt;are_you_using_bundler -->
<g id="edge11" class="edge"><title>is_not_enough_flux&#45;&gt;are_you_using_bundler</title>
<path fill="none" stroke="black" d="M1105.69,-2096.04C1061.74,-2079.95 1017.31,-2056.4 985.09,-2022 958.769,-1993.9 945.767,-1952.62 939.346,-1918.25"/>
<polygon fill="black" stroke="black" points="942.778,-1917.55 937.631,-1908.29 935.879,-1918.74 942.778,-1917.55"/>
<text text-anchor="middle" x="1006.09" y="-1983.07" font-family="Times,serif" font-size="14.00">いいえ</text>
</g>
<!-- add_flux -->
<g id="node10" class="node"><title>add_flux</title>
<polygon fill="none" stroke="black" points="1430.03,-2022.23 1036.15,-2022.23 1036.15,-1945.31 1430.03,-1945.31 1430.03,-2022.23"/>
<text text-anchor="middle" x="1233.09" y="-2006.8" font-family="Times,serif" font-size="14.00">Flux ライブラリの導入を検討してみてください。</text>
<text text-anchor="middle" x="1233.09" y="-1983.98" font-family="Times,serif" font-size="14.00"> &#160;&#160;&#160;複数のコンポーネントで共有できる状態を外部化したり、</text>
<text text-anchor="middle" x="1233.09" y="-1961.16" font-family="Times,serif" font-size="14.00"> &#160;&#160;&#160;一貫性のある状態更新に役立ちます。</text>
</g>
<!-- is_not_enough_flux&#45;&gt;add_flux -->
<g id="edge10" class="edge"><title>is_not_enough_flux&#45;&gt;add_flux</title>
<path fill="none" stroke="black" d="M1253.51,-2080.31C1250.17,-2064.69 1246.49,-2047.48 1243.19,-2032.03"/>
<polygon fill="black" stroke="black" points="1246.59,-2031.2 1241.08,-2022.16 1239.75,-2032.67 1246.59,-2031.2"/>
<text text-anchor="middle" x="1262.09" y="-2049.8" font-family="Times,serif" font-size="14.00">はい</text>
</g>
<!-- remove_flux&#45;&gt;are_you_using_bundler -->
<g id="edge13" class="edge"><title>remove_flux&#45;&gt;are_you_using_bundler</title>
<path fill="none" stroke="black" d="M700.316,-1945.39C739.737,-1930.24 785.406,-1912.68 825.796,-1897.15"/>
<polygon fill="black" stroke="black" points="827.055,-1900.42 835.133,-1893.56 824.543,-1893.88 827.055,-1900.42"/>
</g>
<!-- are_you_working_on_production_app_with_bundler -->
<g id="node11" class="node"><title>are_you_working_on_production_app_with_bundler</title>
<polygon fill="none" stroke="black" points="773.09,-1744.08 485.622,-1713.44 773.09,-1682.8 1060.56,-1713.44 773.09,-1744.08"/>
<text text-anchor="middle" x="773.09" y="-1713.65" font-family="Times,serif" font-size="14.00">本番のアプリケーションで使っていますか?</text>
</g>
<!-- are_you_using_bundler&#45;&gt;are_you_working_on_production_app_with_bundler -->
<g id="edge14" class="edge"><title>are_you_using_bundler&#45;&gt;are_you_working_on_production_app_with_bundler</title>
<path fill="none" stroke="black" d="M881.584,-1809.01C858.741,-1789.1 832.332,-1766.08 811.289,-1747.74"/>
<polygon fill="black" stroke="black" points="813.343,-1744.89 803.505,-1740.95 808.744,-1750.16 813.343,-1744.89"/>
<text text-anchor="middle" x="863.09" y="-1772.06" font-family="Times,serif" font-size="14.00">はい</text>
</g>
<!-- are_you_working_on_production_app_without_bundler -->
<g id="node12" class="node"><title>are_you_working_on_production_app_without_bundler</title>
<polygon fill="none" stroke="black" points="1365.09,-1744.08 1077.62,-1713.44 1365.09,-1682.8 1652.56,-1713.44 1365.09,-1744.08"/>
<text text-anchor="middle" x="1365.09" y="-1713.65" font-family="Times,serif" font-size="14.00">本番のアプリケーションで使っていますか?</text>
</g>
<!-- are_you_using_bundler&#45;&gt;are_you_working_on_production_app_without_bundler -->
<g id="edge15" class="edge"><title>are_you_using_bundler&#45;&gt;are_you_working_on_production_app_without_bundler</title>
<path fill="none" stroke="black" d="M1043.5,-1818.26C1119.27,-1793.8 1218.03,-1761.92 1286.01,-1739.97"/>
<polygon fill="black" stroke="black" points="1287.37,-1743.21 1295.81,-1736.81 1285.21,-1736.55 1287.37,-1743.21"/>
<text text-anchor="middle" x="1233.09" y="-1772.06" font-family="Times,serif" font-size="14.00">いいえ</text>
</g>
<!-- add_flux&#45;&gt;are_you_using_bundler -->
<g id="edge12" class="edge"><title>add_flux&#45;&gt;are_you_using_bundler</title>
<path fill="none" stroke="black" d="M1144.7,-1945.39C1109.96,-1930.7 1069.87,-1913.75 1034,-1898.58"/>
<polygon fill="black" stroke="black" points="1035.06,-1895.23 1024.49,-1894.55 1032.33,-1901.67 1035.06,-1895.23"/>
</g>
<!-- do_you_know_es2015 -->
<g id="node13" class="node"><title>do_you_know_es2015</title>
<polygon fill="none" stroke="black" points="1222.09,-1489.48 908.506,-1435.7 1222.09,-1381.92 1535.67,-1435.7 1222.09,-1489.48"/>
<text text-anchor="middle" x="1222.09" y="-1447.32" font-family="Times,serif" font-size="14.00">ES2015 (クラスや矢印のような関数定義など) を</text>
<text text-anchor="middle" x="1222.09" y="-1424.5" font-family="Times,serif" font-size="14.00"> &#160;&#160;&#160;便利に感じますか?</text>
</g>
<!-- are_you_working_on_production_app_with_bundler&#45;&gt;do_you_know_es2015 -->
<g id="edge16" class="edge"><title>are_you_working_on_production_app_with_bundler&#45;&gt;do_you_know_es2015</title>
<path fill="none" stroke="black" d="M755.511,-1684.33C733.102,-1644.52 701.503,-1571.55 739.09,-1526.34 772.006,-1486.76 881.3,-1464.57 987.61,-1452.18"/>
<polygon fill="black" stroke="black" points="988.016,-1455.65 997.556,-1451.05 987.224,-1448.7 988.016,-1455.65"/>
<text text-anchor="middle" x="753.09" y="-1575.28" font-family="Times,serif" font-size="14.00">はい</text>
</g>
<!-- remove_bundler -->
<g id="node14" class="node"><title>remove_bundler</title>
<polygon fill="none" stroke="black" points="1261.94,-1625.76 776.235,-1625.76 776.235,-1526.2 1261.94,-1526.2 1261.94,-1625.76"/>
<text text-anchor="middle" x="1019.09" y="-1610.42" font-family="Times,serif" font-size="14.00">React を学ぶのに bundler は不要です。</text>
<text text-anchor="middle" x="1019.09" y="-1587.6" font-family="Times,serif" font-size="14.00"> &#160;&#160;&#160;https://github.com/jarsbe/react&#45;simple をコピーしてビルド処理なしで</text>
<text text-anchor="middle" x="1019.09" y="-1564.78" font-family="Times,serif" font-size="14.00"> &#160;&#160;&#160;はじめてください。React に慣れてきたり、モジュール機構や他の bundler</text>
<text text-anchor="middle" x="1019.09" y="-1541.96" font-family="Times,serif" font-size="14.00"> &#160;&#160;&#160;について学びたくなるまでは &lt;script&gt; タグを使ってください。</text>
</g>
<!-- are_you_working_on_production_app_with_bundler&#45;&gt;remove_bundler -->
<g id="edge17" class="edge"><title>are_you_working_on_production_app_with_bundler&#45;&gt;remove_bundler</title>
<path fill="none" stroke="black" d="M818.21,-1687.6C847.173,-1671.65 885.922,-1650.31 921.659,-1630.63"/>
<polygon fill="black" stroke="black" points="923.601,-1633.56 930.672,-1625.67 920.224,-1627.43 923.601,-1633.56"/>
<text text-anchor="middle" x="917.09" y="-1653.42" font-family="Times,serif" font-size="14.00">いいえ</text>
</g>
<!-- are_you_working_on_production_app_without_bundler&#45;&gt;do_you_know_es2015 -->
<g id="edge19" class="edge"><title>are_you_working_on_production_app_without_bundler&#45;&gt;do_you_know_es2015</title>
<path fill="none" stroke="black" d="M1344.22,-1684.95C1332.29,-1668.37 1317.65,-1646.49 1307.09,-1625.62 1285.9,-1583.74 1290.4,-1569.12 1271.09,-1526.34 1266.24,-1515.61 1260.61,-1504.41 1254.94,-1493.71"/>
<polygon fill="black" stroke="black" points="1257.99,-1492.01 1250.17,-1484.87 1251.83,-1495.33 1257.99,-1492.01"/>
<text text-anchor="middle" x="1328.09" y="-1575.28" font-family="Times,serif" font-size="14.00">いいえ</text>
</g>
<!-- add_bundler -->
<g id="node15" class="node"><title>add_bundler</title>
<polygon fill="none" stroke="black" points="1774.19,-1625.76 1357.99,-1625.76 1357.99,-1526.2 1774.19,-1526.2 1774.19,-1625.76"/>
<text text-anchor="middle" x="1566.09" y="-1610.42" font-family="Times,serif" font-size="14.00">依存関係の管理と JavaScript コードの効果的な配信のために</text>
<text text-anchor="middle" x="1566.09" y="-1587.6" font-family="Times,serif" font-size="14.00"> &#160;&#160;&#160;bundler をビルド処理として導入してください。</text>
<text text-anchor="middle" x="1566.09" y="-1564.78" font-family="Times,serif" font-size="14.00"> &#160;&#160;&#160;効果測定には Google Page Speed Insights ツールを使用します。</text>
<text text-anchor="middle" x="1566.09" y="-1541.96" font-family="Times,serif" font-size="14.00"> &#160;&#160;&#160;コードの minify と envify をお忘れなく。</text>
</g>
<!-- are_you_working_on_production_app_without_bundler&#45;&gt;add_bundler -->
<g id="edge18" class="edge"><title>are_you_working_on_production_app_without_bundler&#45;&gt;add_bundler</title>
<path fill="none" stroke="black" d="M1403.37,-1686.64C1426.59,-1670.99 1457.12,-1650.42 1485.46,-1631.32"/>
<polygon fill="black" stroke="black" points="1487.44,-1634.21 1493.77,-1625.72 1483.52,-1628.4 1487.44,-1634.21"/>
<text text-anchor="middle" x="1479.09" y="-1653.42" font-family="Times,serif" font-size="14.00">はい</text>
</g>
<!-- use_es5 -->
<g id="node16" class="node"><title>use_es5</title>
<polygon fill="none" stroke="black" points="1500.83,-1199.74 879.352,-1199.74 879.352,-1054.9 1500.83,-1054.9 1500.83,-1199.74"/>
<text text-anchor="middle" x="1190.09" y="-1184.58" font-family="Times,serif" font-size="14.00">まだ ES2015 を使わないでください。React を学ぶのにそれらは不要です。</text>
<text text-anchor="middle" x="1190.09" y="-1161.76" font-family="Times,serif" font-size="14.00"> &#160;&#160;&#160;サードパーティ製のライブラリはしばしばサンプルとして ES2015 の構文を使用していますが、</text>
<text text-anchor="middle" x="1190.09" y="-1138.94" font-family="Times,serif" font-size="14.00"> &#160;&#160;&#160;そもそも React 自体を学ぶのにサードパーティ製のライブラリは不要です。</text>
<text text-anchor="middle" x="1190.09" y="-1116.12" font-family="Times,serif" font-size="14.00"> &#160;&#160;&#160;JavaScript の知識をアップデートしたいのであれば</text>
<text text-anchor="middle" x="1190.09" y="-1093.3" font-family="Times,serif" font-size="14.00"> &#160;&#160;&#160;https://leanpub.com/understandinges6/read はすばらしい参考資料です。</text>
<text text-anchor="middle" x="1190.09" y="-1070.48" font-family="Times,serif" font-size="14.00"> &#160;&#160;&#160;ちょっと試すのには http://babeljs.io/repl が使えます。</text>
</g>
<!-- do_you_know_es2015&#45;&gt;use_es5 -->
<g id="edge22" class="edge"><title>do_you_know_es2015&#45;&gt;use_es5</title>
<path fill="none" stroke="black" d="M1215.71,-1382.86C1213.52,-1364.6 1211.12,-1343.93 1209.09,-1325.06 1205.03,-1287.33 1200.93,-1245.49 1197.59,-1210.12"/>
<polygon fill="black" stroke="black" points="1201.04,-1209.48 1196.62,-1199.85 1194.07,-1210.13 1201.04,-1209.48"/>
<text text-anchor="middle" x="1234.09" y="-1352.86" font-family="Times,serif" font-size="14.00">いいえ</text>
</g>
<!-- are_you_using_dangerous_features -->
<g id="node17" class="node"><title>are_you_using_dangerous_features</title>
<polygon fill="none" stroke="black" points="1563.09,-1325.2 1217.81,-1271.42 1563.09,-1217.64 1908.37,-1271.42 1563.09,-1325.2"/>
<text text-anchor="middle" x="1563.09" y="-1283.04" font-family="Times,serif" font-size="14.00">ES2015 で代用しにくい実験的な</text>
<text text-anchor="middle" x="1563.09" y="-1260.22" font-family="Times,serif" font-size="14.00"> &#160;&#160;&#160;言語機能 (デコレータ構文など) を使っていますか?</text>
</g>
<!-- do_you_know_es2015&#45;&gt;are_you_using_dangerous_features -->
<g id="edge23" class="edge"><title>do_you_know_es2015&#45;&gt;are_you_using_dangerous_features</title>
<path fill="none" stroke="black" d="M1303.77,-1395.83C1353.86,-1371.99 1418.15,-1341.4 1470.18,-1316.64"/>
<polygon fill="black" stroke="black" points="1471.89,-1319.7 1479.41,-1312.24 1468.88,-1313.38 1471.89,-1319.7"/>
<text text-anchor="middle" x="1426.09" y="-1352.86" font-family="Times,serif" font-size="14.00">はい</text>
</g>
<!-- remove_bundler&#45;&gt;do_you_know_es2015 -->
<g id="edge21" class="edge"><title>remove_bundler&#45;&gt;do_you_know_es2015</title>
<path fill="none" stroke="black" d="M1090.66,-1526.23C1110.44,-1512.76 1131.88,-1498.15 1151.59,-1484.72"/>
<polygon fill="black" stroke="black" points="1153.63,-1487.57 1159.93,-1479.05 1149.69,-1481.78 1153.63,-1487.57"/>
</g>
<!-- add_bundler&#45;&gt;do_you_know_es2015 -->
<g id="edge20" class="edge"><title>add_bundler&#45;&gt;do_you_know_es2015</title>
<path fill="none" stroke="black" d="M1444.81,-1526.23C1405.22,-1510.32 1361.7,-1492.82 1323.71,-1477.55"/>
<polygon fill="black" stroke="black" points="1324.76,-1474.2 1314.17,-1473.72 1322.15,-1480.69 1324.76,-1474.2"/>
</g>
<!-- do_you_update_packages_asap -->
<g id="node18" class="node"><title>do_you_update_packages_asap</title>
<polygon fill="none" stroke="black" points="1580.09,-785.402 1278.56,-733.761 1580.09,-682.12 1881.62,-733.761 1580.09,-785.402"/>
<text text-anchor="middle" x="1580.09" y="-744.471" font-family="Times,serif" font-size="14.00">依存ライブラリの</text>
<text text-anchor="middle" x="1580.09" y="-723.471" font-family="Times,serif" font-size="14.00"> &#160;&#160;&#160;メジャーバージョンアップに追従しますか?</text>
</g>
<!-- use_es5&#45;&gt;do_you_update_packages_asap -->
<g id="edge24" class="edge"><title>use_es5&#45;&gt;do_you_update_packages_asap</title>
<path fill="none" stroke="black" d="M1256.08,-1054.86C1318.18,-988.392 1414.47,-887.3 1502.09,-803.581 1508.8,-797.168 1515.96,-790.555 1523.12,-784.082"/>
<polygon fill="black" stroke="black" points="1525.77,-786.412 1530.87,-777.128 1521.09,-781.203 1525.77,-786.412"/>
</g>
<!-- are_you_using_dangerous_features&#45;&gt;do_you_update_packages_asap -->
<g id="edge26" class="edge"><title>are_you_using_dangerous_features&#45;&gt;do_you_update_packages_asap</title>
<path fill="none" stroke="black" d="M1552.66,-1219.2C1540.59,-1153.05 1523.77,-1034.36 1535.09,-933.221 1540.45,-885.318 1552.88,-832.104 1563.32,-792.846"/>
<polygon fill="black" stroke="black" points="1566.7,-793.745 1565.93,-783.178 1559.94,-791.923 1566.7,-793.745"/>
<text text-anchor="middle" x="1561.09" y="-904.021" font-family="Times,serif" font-size="14.00">いいえ</text>
</g>
<!-- can_you_spend_days_on_your_tooling -->
<g id="node19" class="node"><title>can_you_spend_days_on_your_tooling</title>
<polygon fill="none" stroke="black" points="1895.09,-1036.68 1544.05,-985.041 1895.09,-933.4 2246.13,-985.041 1895.09,-1036.68"/>
<text text-anchor="middle" x="1895.09" y="-995.751" font-family="Times,serif" font-size="14.00">バグや非互換性、仕様変更によるビルドツール設定の</text>
<text text-anchor="middle" x="1895.09" y="-974.751" font-family="Times,serif" font-size="14.00"> &#160;&#160;&#160;メンテナンスに数週間ごとに時間を割けますか?</text>
</g>
<!-- are_you_using_dangerous_features&#45;&gt;can_you_spend_days_on_your_tooling -->
<g id="edge25" class="edge"><title>are_you_using_dangerous_features&#45;&gt;can_you_spend_days_on_your_tooling</title>
<path fill="none" stroke="black" d="M1615.33,-1225.67C1675.48,-1174.15 1774.04,-1089.73 1836.68,-1036.07"/>
<polygon fill="black" stroke="black" points="1839.2,-1038.53 1844.51,-1029.36 1834.64,-1033.21 1839.2,-1038.53"/>
<text text-anchor="middle" x="1828.09" y="-1126.62" font-family="Times,serif" font-size="14.00">はい</text>
</g>
<!-- give_it_two_months -->
<g id="node21" class="node"><title>give_it_two_months</title>
<polygon fill="none" stroke="black" points="1736.21,-624.721 1071.97,-624.721 1071.97,-434.6 1736.21,-434.6 1736.21,-624.721"/>
<text text-anchor="middle" x="1404.09" y="-609.741" font-family="Times,serif" font-size="14.00">React はすべてのリリースごとに徹底的にテストしているためその限りではありませんが、</text>
<text text-anchor="middle" x="1404.09" y="-586.921" font-family="Times,serif" font-size="14.00"> &#160;&#160;&#160;パッケージのアップデート頻度を落とすことを検討して下さい。</text>
<text text-anchor="middle" x="1404.09" y="-564.101" font-family="Times,serif" font-size="14.00"> &#160;&#160;&#160;依存パッケージの新しいバージョンを試してもいいですが、</text>
<text text-anchor="middle" x="1404.09" y="-541.281" font-family="Times,serif" font-size="14.00"> &#160;&#160;&#160;コミュニティが共通の問題を見つけて修正されるまでの数ヶ月間は</text>
<text text-anchor="middle" x="1404.09" y="-518.461" font-family="Times,serif" font-size="14.00"> &#160;&#160;&#160;現在のブランチを維持するのがベストです。</text>
<text text-anchor="middle" x="1404.09" y="-495.641" font-family="Times,serif" font-size="14.00"> &#160;&#160;&#160;間違った情報に基づいた意思決定はしないでください!</text>
<text text-anchor="middle" x="1404.09" y="-472.821" font-family="Times,serif" font-size="14.00"> &#160;&#160;&#160;古いドキュメントを見ているときは GitHub のタグ付けされたリリースの確認を忘れないでください。</text>
<text text-anchor="middle" x="1404.09" y="-450" font-family="Times,serif" font-size="14.00"> &#160;&#160;&#160;例えば https://github.com/reactjs/react&#45;router/tree/0.13.x/doc</text>
</g>
<!-- do_you_update_packages_asap&#45;&gt;give_it_two_months -->
<g id="edge30" class="edge"><title>do_you_update_packages_asap&#45;&gt;give_it_two_months</title>
<path fill="none" stroke="black" d="M1541.47,-688.409C1527.08,-671.894 1510.1,-652.392 1493.07,-632.833"/>
<polygon fill="black" stroke="black" points="1495.49,-630.291 1486.29,-625.048 1490.22,-634.888 1495.49,-630.291"/>
<text text-anchor="middle" x="1532.09" y="-652.741" font-family="Times,serif" font-size="14.00">はい</text>
</g>
<!-- consider_updating_react -->
<g id="node22" class="node"><title>consider_updating_react</title>
<polygon fill="none" stroke="black" points="2367.75,-578.622 1754.43,-578.622 1754.43,-480.699 2367.75,-480.699 2367.75,-578.622"/>
<text text-anchor="middle" x="2061.09" y="-563.191" font-family="Times,serif" font-size="14.00">それはいい判断です。しかしながらまもなくリリースされる新しいバージョンの</text>
<text text-anchor="middle" x="2061.09" y="-542.191" font-family="Times,serif" font-size="14.00"> &#160;&#160;&#160;React を (別ブランチで) 試すことをおすすめします。</text>
<text text-anchor="middle" x="2061.09" y="-519.371" font-family="Times,serif" font-size="14.00"> &#160;&#160;&#160;多くのコミュニティによるパッケージと違って Facebook で徹底的にテストされています。</text>
<text text-anchor="middle" x="2061.09" y="-496.551" font-family="Times,serif" font-size="14.00"> &#160;&#160;&#160;リリースノートにある移行手順などが記述されたリンクを見落とさないようにしてください。</text>
</g>
<!-- do_you_update_packages_asap&#45;&gt;consider_updating_react -->
<g id="edge31" class="edge"><title>do_you_update_packages_asap&#45;&gt;consider_updating_react</title>
<path fill="none" stroke="black" d="M1665.81,-696.746C1741.43,-664.97 1852.56,-618.277 1937.75,-582.486"/>
<polygon fill="black" stroke="black" points="1939.35,-585.608 1947.21,-578.508 1936.64,-579.155 1939.35,-585.608"/>
<text text-anchor="middle" x="1812.09" y="-652.741" font-family="Times,serif" font-size="14.00">いいえ</text>
</g>
<!-- can_you_spend_days_on_your_tooling&#45;&gt;do_you_update_packages_asap -->
<g id="edge27" class="edge"><title>can_you_spend_days_on_your_tooling&#45;&gt;do_you_update_packages_asap</title>
<path fill="none" stroke="black" d="M1792.07,-948.553C1751.34,-931.105 1706.01,-907.092 1671.09,-876.221 1644.34,-852.574 1622.38,-819.247 1606.74,-790.88"/>
<polygon fill="black" stroke="black" points="1609.71,-789.009 1601.89,-781.863 1603.55,-792.327 1609.71,-789.009"/>
<text text-anchor="middle" x="1685.09" y="-848.701" font-family="Times,serif" font-size="14.00">はい</text>
</g>
<!-- stick_to_es2015 -->
<g id="node20" class="node"><title>stick_to_es2015</title>
<polygon fill="none" stroke="black" points="1973.71,-876.042 1708.47,-876.042 1708.47,-822.76 1973.71,-822.76 1973.71,-876.042"/>
<text text-anchor="middle" x="1841.09" y="-861.021" font-family="Times,serif" font-size="14.00">ES2015、JSX、スプレッドオペレータの</text>
<text text-anchor="middle" x="1841.09" y="-838.201" font-family="Times,serif" font-size="14.00"> &#160;&#160;&#160;利用にとどめてください。</text>
</g>
<!-- can_you_spend_days_on_your_tooling&#45;&gt;stick_to_es2015 -->
<g id="edge28" class="edge"><title>can_you_spend_days_on_your_tooling&#45;&gt;stick_to_es2015</title>
<path fill="none" stroke="black" d="M1875.75,-936.171C1869.04,-919.583 1861.66,-901.296 1855.43,-885.885"/>
<polygon fill="black" stroke="black" points="1858.51,-884.179 1851.52,-876.219 1852.02,-886.802 1858.51,-884.179"/>
<text text-anchor="middle" x="1887.09" y="-904.021" font-family="Times,serif" font-size="14.00">いいえ</text>
</g>
<!-- stick_to_es2015&#45;&gt;do_you_update_packages_asap -->
<g id="edge29" class="edge"><title>stick_to_es2015&#45;&gt;do_you_update_packages_asap</title>
<path fill="none" stroke="black" d="M1782.19,-822.756C1750.17,-808.815 1709.82,-791.246 1673.61,-775.481"/>
<polygon fill="black" stroke="black" points="1674.58,-772.084 1664.01,-771.301 1671.78,-778.502 1674.58,-772.084"/>
</g>
<!-- are_you_still_sad -->
<g id="node23" class="node"><title>are_you_still_sad</title>
<polygon fill="none" stroke="black" points="1811.09,-397.202 1690.66,-366.56 1811.09,-335.919 1931.52,-366.56 1811.09,-397.202"/>
<text text-anchor="middle" x="1811.09" y="-366.77" font-family="Times,serif" font-size="14.00">まだ不幸ですか?</text>
</g>
<!-- give_it_two_months&#45;&gt;are_you_still_sad -->
<g id="edge32" class="edge"><title>give_it_two_months&#45;&gt;are_you_still_sad</title>
<path fill="none" stroke="black" d="M1641.73,-434.598C1684.32,-417.738 1724.86,-401.691 1755.6,-389.527"/>
<polygon fill="black" stroke="black" points="1757.21,-392.652 1765.22,-385.717 1754.63,-386.143 1757.21,-392.652"/>
</g>
<!-- consider_updating_react&#45;&gt;are_you_still_sad -->
<g id="edge33" class="edge"><title>consider_updating_react&#45;&gt;are_you_still_sad</title>
<path fill="none" stroke="black" d="M1986.76,-480.761C1942.92,-452.511 1889.07,-417.812 1852.64,-394.334"/>
<polygon fill="black" stroke="black" points="1854.53,-391.387 1844.22,-388.912 1850.73,-397.271 1854.53,-391.387"/>
</g>
<!-- rant -->
<g id="node24" class="node"><title>rant</title>
<polygon fill="none" stroke="black" points="1864.79,-278.971 1217.39,-278.971 1217.39,-181.049 1864.79,-181.049 1864.79,-278.971"/>
<text text-anchor="middle" x="1541.09" y="-263.54" font-family="Times,serif" font-size="14.00">あなたが直面している問題について建設的なブログ記事を書いてください。</text>
<text text-anchor="middle" x="1541.09" y="-242.54" font-family="Times,serif" font-size="14.00"> &#160;&#160;&#160;個人攻撃は控えましょう。礼儀正しさを忘れずに。</text>
<text text-anchor="middle" x="1541.09" y="-219.72" font-family="Times,serif" font-size="14.00"> &#160;&#160;&#160;コミュニティが解決方法を見つけ出すのを手助けしましょう。</text>
<text text-anchor="middle" x="1541.09" y="-196.9" font-family="Times,serif" font-size="14.00"> &#160;&#160;&#160;あなたのニーズによりよく合う別のフレームワーク (例えば Ember など) について検討しましょう。</text>
</g>
<!-- are_you_still_sad&#45;&gt;rant -->
<g id="edge34" class="edge"><title>are_you_still_sad&#45;&gt;rant</title>
<path fill="none" stroke="black" d="M1771.54,-345.852C1738.58,-329.428 1690.09,-305.261 1646.08,-283.329"/>
<polygon fill="black" stroke="black" points="1647.56,-280.158 1637.05,-278.831 1644.44,-286.424 1647.56,-280.158"/>
<text text-anchor="middle" x="1722.09" y="-306.54" font-family="Times,serif" font-size="14.00">はい</text>
</g>
<!-- happy -->
<g id="node25" class="node"><title>happy</title>
<polygon fill="none" stroke="black" points="1966.09,-144.101 1642.09,-144.101 1642.09,-90.8188 1966.09,-90.8188 1966.09,-144.101"/>
<text text-anchor="middle" x="1804.09" y="-129.08" font-family="Times,serif" font-size="14.00">React はあなたを幸せにしました!</text>
<text text-anchor="middle" x="1804.09" y="-106.26" font-family="Times,serif" font-size="14.00"> &#160;&#160;&#160;少なくともこれ以上あなたを不幸にしません。</text>
</g>
<!-- are_you_still_sad&#45;&gt;happy -->
<g id="edge35" class="edge"><title>are_you_still_sad&#45;&gt;happy</title>
<path fill="none" stroke="black" d="M1834.81,-341.735C1849.23,-325.49 1866.33,-302.653 1874.09,-278.74 1887.46,-237.541 1891.74,-220.836 1874.09,-181.28 1869.05,-169.98 1860.86,-159.865 1851.82,-151.224"/>
<polygon fill="black" stroke="black" points="1853.88,-148.367 1844.09,-144.318 1849.22,-153.589 1853.88,-148.367"/>
<text text-anchor="middle" x="1906.09" y="-229.31" font-family="Times,serif" font-size="14.00">いいえ</text>
</g>
<!-- rant&#45;&gt;happy -->
<g id="edge36" class="edge"><title>rant&#45;&gt;happy</title>
<path fill="none" stroke="black" d="M1654.92,-181.164C1681.63,-169.934 1709.34,-158.287 1733.52,-148.123"/>
<polygon fill="black" stroke="black" points="1735.09,-151.26 1742.95,-144.158 1732.38,-144.807 1735.09,-151.26"/>
</g>
<!-- share -->
<g id="node26" class="node"><title>share</title>
<path fill="none" stroke="black" d="M2026.65,-53.4613C2026.65,-53.4613 1581.53,-53.4613 1581.53,-53.4613 1575.53,-53.4613 1569.53,-47.4613 1569.53,-41.4613 1569.53,-41.4613 1569.53,-12.1788 1569.53,-12.1788 1569.53,-6.17876 1575.53,-0.178761 1581.53,-0.178761 1581.53,-0.178761 2026.65,-0.178761 2026.65,-0.178761 2032.65,-0.178761 2038.65,-6.17876 2038.65,-12.1788 2038.65,-12.1788 2038.65,-41.4613 2038.65,-41.4613 2038.65,-47.4613 2032.65,-53.4613 2026.65,-53.4613"/>
<text text-anchor="middle" x="1804.09" y="-38.4401" font-family="Times,serif" font-size="14.00">このフローチャートをシェアしてください: http://bit.ly/react&#45;makes&#45;you&#45;sad</text>
<text text-anchor="middle" x="1804.09" y="-15.62" font-family="Times,serif" font-size="14.00"> &#160;&#160;&#160;参考元: https://github.com/petehunt/react&#45;howto</text>
</g>
<!-- happy&#45;&gt;share -->
<g id="edge37" class="edge"><title>happy&#45;&gt;share</title>
<path fill="none" stroke="black" d="M1804.09,-90.3446C1804.09,-82.0493 1804.09,-72.7242 1804.09,-63.8576"/>
<polygon fill="black" stroke="black" points="1807.59,-63.7489 1804.09,-53.7489 1800.59,-63.7489 1807.59,-63.7489"/>
</g>
</g>
</svg>
